<?xml version="1.0" encoding="iso-8859-1"?>
<!-- Generator: Adobe Illustrator 19.0.0, SVG Export Plug-In . SVG Version: 6.00 Build 0)  -->
<svg version="1.1" id="Capa_1" xmlns="http://www.w3.org/2000/svg" xmlns:xlink="http://www.w3.org/1999/xlink" x="0px" y="0px"
	 viewBox="0 0 464.005 464.005" style="enable-background:new 0 0 464.005 464.005;" xml:space="preserve">
<path style="fill:#00F2A9;" d="M65.763,331.123c24.056,18.056,53.848,28.88,86.24,28.88c79.528,0,144-64.472,144-144
	s-64.472-144-144-144s-144,64.472-144,144c0,32.392,10.824,62.184,28.88,86.24l-28.88,57.76L65.763,331.123z"/>
<g>
	<path style="fill:#322153;" d="M0.843,324.427c-1.536,3.08-0.936,6.8,1.504,9.232c1.536,1.536,3.584,2.344,5.656,2.344
		c1.216,0,2.44-0.272,3.576-0.84l53.416-26.704c25.704,18.04,55.68,27.544,87.008,27.544c6.232,0,12.352-0.496,18.392-1.224
		c22.528,58.36,78.64,97.224,141.608,97.224c31.328,0,61.304-9.504,87.008-27.544l53.416,26.704c1.136,0.568,2.36,0.84,3.576,0.84
		c2.072,0,4.12-0.808,5.656-2.344c2.44-2.44,3.04-6.16,1.504-9.232l-26.704-53.416c18.04-25.704,27.544-55.68,27.544-87.008
		c0-83.816-68.184-152-152-152h-18.824c-22.36-56.152-77.152-96-141.176-96c-83.816,0-152,68.184-152,152
		c0,31.328,9.504,61.304,27.544,87.008L0.843,324.427z M312.003,144.003c74.992,0,136,61.008,136,136
		c0,29.504-9.432,57.656-27.272,81.44c-1.824,2.432-2.112,5.672-0.76,8.384l18.152,36.296l-36.296-18.152
		c-2.72-1.344-5.96-1.064-8.384,0.76c-23.784,17.84-51.944,27.272-81.44,27.272c-55.304,0-104.704-33.48-125.576-84.08
		c67.264-15.664,117.576-75.96,117.576-147.92c0-13.864-2.024-27.232-5.52-40H312.003z M16.003,184.003c0-74.992,61.008-136,136-136
		s136,61.008,136,136s-61.008,136-136,136c-29.504,0-57.656-9.432-81.44-27.272c-1.416-1.064-3.104-1.6-4.808-1.6
		c-1.216,0-2.448,0.28-3.576,0.84l-36.296,18.152l18.152-36.296c1.352-2.712,1.064-5.952-0.76-8.384
		C25.435,241.659,16.003,213.507,16.003,184.003z"/>
	<path style="fill:#322153;" d="M88.003,208.003c13.232,0,24-10.768,24-24s-10.768-24-24-24s-24,10.768-24,24
		S74.771,208.003,88.003,208.003z M88.003,176.003c4.416,0,8,3.584,8,8s-3.584,8-8,8s-8-3.584-8-8S83.587,176.003,88.003,176.003z"
		/>
	<path style="fill:#322153;" d="M152.003,208.003c13.232,0,24-10.768,24-24s-10.768-24-24-24s-24,10.768-24,24
		S138.771,208.003,152.003,208.003z M152.003,176.003c4.416,0,8,3.584,8,8s-3.584,8-8,8s-8-3.584-8-8
		S147.587,176.003,152.003,176.003z"/>
	<path style="fill:#322153;" d="M216.003,208.003c13.232,0,24-10.768,24-24s-10.768-24-24-24s-24,10.768-24,24
		S202.771,208.003,216.003,208.003z M216.003,176.003c4.416,0,8,3.584,8,8s-3.584,8-8,8s-8-3.584-8-8
		S211.587,176.003,216.003,176.003z"/>
	<path style="fill:#322153;" d="M288.003,280.003c0,13.232,10.768,24,24,24s24-10.768,24-24s-10.768-24-24-24
		S288.003,266.771,288.003,280.003z M312.003,272.003c4.416,0,8,3.584,8,8s-3.584,8-8,8s-8-3.584-8-8
		S307.587,272.003,312.003,272.003z"/>
	<path style="fill:#322153;" d="M376.003,304.003c13.232,0,24-10.768,24-24s-10.768-24-24-24s-24,10.768-24,24
		S362.771,304.003,376.003,304.003z M376.003,272.003c4.416,0,8,3.584,8,8s-3.584,8-8,8s-8-3.584-8-8
		S371.587,272.003,376.003,272.003z"/>
</g>
<g>
</g>
<g>
</g>
<g>
</g>
<g>
</g>
<g>
</g>
<g>
</g>
<g>
</g>
<g>
</g>
<g>
</g>
<g>
</g>
<g>
</g>
<g>
</g>
<g>
</g>
<g>
</g>
<g>
</g>
</svg>
